<mxfile host="Electron" agent="Mozilla/5.0 (Windows NT 10.0; Win64; x64) AppleWebKit/537.36 (KHTML, like Gecko) draw.io/27.0.9 Chrome/134.0.6998.205 Electron/35.4.0 Safari/537.36" version="27.0.9">
  <diagram id="UCKKgr28noMgyS0MNk67" name="Seite-1">
    <mxGraphModel dx="3156" dy="2307" grid="1" gridSize="10" guides="1" tooltips="1" connect="1" arrows="1" fold="1" page="1" pageScale="1" pageWidth="827" pageHeight="1169" math="0" shadow="0">
      <root>
        <mxCell id="0" />
        <mxCell id="1" parent="0" />
        <mxCell id="PTzoErKE7SmrGTtnIzwI-1" value="" style="rounded=0;whiteSpace=wrap;html=1;" parent="1" vertex="1">
          <mxGeometry x="-10" y="80" width="770" height="1000" as="geometry" />
        </mxCell>
        <mxCell id="PTzoErKE7SmrGTtnIzwI-4" value="" style="rounded=0;whiteSpace=wrap;html=1;" parent="1" vertex="1">
          <mxGeometry x="580" y="100" width="160" height="30" as="geometry" />
        </mxCell>
        <mxCell id="PTzoErKE7SmrGTtnIzwI-10" value="&lt;font style=&quot;font-size: 14px;&quot;&gt;Search&lt;/font&gt;" style="text;html=1;align=center;verticalAlign=middle;whiteSpace=wrap;rounded=0;" parent="1" vertex="1">
          <mxGeometry x="590" y="100" width="60" height="30" as="geometry" />
        </mxCell>
        <mxCell id="PTzoErKE7SmrGTtnIzwI-14" value="" style="rounded=0;whiteSpace=wrap;html=1;" parent="1" vertex="1">
          <mxGeometry x="70" y="140" width="670" height="210" as="geometry" />
        </mxCell>
        <mxCell id="PTzoErKE7SmrGTtnIzwI-15" value="images?" style="text;html=1;align=center;verticalAlign=middle;whiteSpace=wrap;rounded=0;" parent="1" vertex="1">
          <mxGeometry x="270" y="160" width="160" height="30" as="geometry" />
        </mxCell>
        <mxCell id="PTzoErKE7SmrGTtnIzwI-16" value="&lt;span style=&quot;font-size: 24px;&quot;&gt;Neo Dijkstra&lt;/span&gt;" style="text;html=1;align=center;verticalAlign=middle;whiteSpace=wrap;rounded=0;" parent="1" vertex="1">
          <mxGeometry x="200" y="230" width="410" height="30" as="geometry" />
        </mxCell>
        <mxCell id="PTzoErKE7SmrGTtnIzwI-17" value="" style="rounded=0;whiteSpace=wrap;html=1;" parent="1" vertex="1">
          <mxGeometry y="100" width="50" height="880" as="geometry" />
        </mxCell>
        <mxCell id="PTzoErKE7SmrGTtnIzwI-18" value="" style="rounded=0;whiteSpace=wrap;html=1;" parent="1" vertex="1">
          <mxGeometry x="10" y="110" width="30" height="30" as="geometry" />
        </mxCell>
        <mxCell id="PTzoErKE7SmrGTtnIzwI-20" value="menu" style="text;html=1;align=center;verticalAlign=middle;whiteSpace=wrap;rounded=0;" parent="1" vertex="1">
          <mxGeometry x="-5" y="100" width="60" height="30" as="geometry" />
        </mxCell>
        <mxCell id="PTzoErKE7SmrGTtnIzwI-21" value="" style="rounded=0;whiteSpace=wrap;html=1;" parent="1" vertex="1">
          <mxGeometry x="70" y="360" width="670" height="100" as="geometry" />
        </mxCell>
        <mxCell id="PTzoErKE7SmrGTtnIzwI-22" value="short intro text about myself" style="text;html=1;align=center;verticalAlign=middle;whiteSpace=wrap;rounded=0;" parent="1" vertex="1">
          <mxGeometry x="280" y="385" width="250" height="50" as="geometry" />
        </mxCell>
        <mxCell id="PTzoErKE7SmrGTtnIzwI-23" value="" style="rounded=0;whiteSpace=wrap;html=1;" parent="1" vertex="1">
          <mxGeometry x="70" y="480" width="440" height="500" as="geometry" />
        </mxCell>
        <mxCell id="t61wf-N3fbhxSQ1rRu1j-2" value="&lt;font style=&quot;font-size: 36px;&quot;&gt;Homepage remake&lt;/font&gt;" style="text;html=1;align=center;verticalAlign=middle;whiteSpace=wrap;rounded=0;" parent="1" vertex="1">
          <mxGeometry x="970" y="-30" width="425" height="90" as="geometry" />
        </mxCell>
        <mxCell id="t61wf-N3fbhxSQ1rRu1j-3" value="" style="rounded=0;whiteSpace=wrap;html=1;movable=1;resizable=1;rotatable=1;deletable=1;editable=1;locked=0;connectable=1;" parent="1" vertex="1">
          <mxGeometry x="797.5" y="80" width="770" height="1040" as="geometry" />
        </mxCell>
        <mxCell id="t61wf-N3fbhxSQ1rRu1j-4" value="" style="rounded=0;whiteSpace=wrap;html=1;" parent="1" vertex="1">
          <mxGeometry x="877.5" y="100" width="240" height="30" as="geometry" />
        </mxCell>
        <mxCell id="t61wf-N3fbhxSQ1rRu1j-12" value="" style="rounded=0;whiteSpace=wrap;html=1;" parent="1" vertex="1">
          <mxGeometry x="877.5" y="100" width="670" height="250" as="geometry" />
        </mxCell>
        <mxCell id="t61wf-N3fbhxSQ1rRu1j-5" value="" style="rounded=0;whiteSpace=wrap;html=1;" parent="1" vertex="1">
          <mxGeometry x="1387.5" y="100" width="160" height="30" as="geometry" />
        </mxCell>
        <mxCell id="t61wf-N3fbhxSQ1rRu1j-6" value="" style="rounded=0;whiteSpace=wrap;html=1;" parent="1" vertex="1">
          <mxGeometry x="1206.5" y="100" width="30" height="30" as="geometry" />
        </mxCell>
        <mxCell id="t61wf-N3fbhxSQ1rRu1j-7" value="" style="rounded=0;whiteSpace=wrap;html=1;" parent="1" vertex="1">
          <mxGeometry x="1247.5" y="100" width="30" height="30" as="geometry" />
        </mxCell>
        <mxCell id="t61wf-N3fbhxSQ1rRu1j-8" value="&lt;font style=&quot;font-size: 14px;&quot;&gt;Search&lt;/font&gt;" style="text;html=1;align=center;verticalAlign=middle;whiteSpace=wrap;rounded=0;" parent="1" vertex="1">
          <mxGeometry x="1397.5" y="100" width="60" height="30" as="geometry" />
        </mxCell>
        <mxCell id="t61wf-N3fbhxSQ1rRu1j-9" value="Sign up" style="text;html=1;align=center;verticalAlign=middle;whiteSpace=wrap;rounded=0;" parent="1" vertex="1">
          <mxGeometry x="1232.5" y="100" width="60" height="30" as="geometry" />
        </mxCell>
        <mxCell id="t61wf-N3fbhxSQ1rRu1j-10" value="Login" style="text;html=1;align=center;verticalAlign=middle;whiteSpace=wrap;rounded=0;" parent="1" vertex="1">
          <mxGeometry x="1196.5" y="100" width="50" height="30" as="geometry" />
        </mxCell>
        <mxCell id="t61wf-N3fbhxSQ1rRu1j-11" value="&lt;font style=&quot;font-size: 18px;&quot;&gt;monolith website name&lt;/font&gt;" style="text;html=1;align=center;verticalAlign=middle;whiteSpace=wrap;rounded=0;" parent="1" vertex="1">
          <mxGeometry x="887.5" y="100" width="220" height="30" as="geometry" />
        </mxCell>
        <mxCell id="t61wf-N3fbhxSQ1rRu1j-13" value="Stalker background&amp;nbsp; image" style="text;html=1;align=center;verticalAlign=middle;whiteSpace=wrap;rounded=0;" parent="1" vertex="1">
          <mxGeometry x="1077.5" y="160" width="160" height="30" as="geometry" />
        </mxCell>
        <mxCell id="t61wf-N3fbhxSQ1rRu1j-14" value="&lt;font style=&quot;font-size: 24px;&quot;&gt;Tutorials, modding guides and more&lt;/font&gt;" style="text;html=1;align=center;verticalAlign=middle;whiteSpace=wrap;rounded=0;" parent="1" vertex="1">
          <mxGeometry x="1007.5" y="230" width="410" height="30" as="geometry" />
        </mxCell>
        <mxCell id="t61wf-N3fbhxSQ1rRu1j-15" value="" style="rounded=0;whiteSpace=wrap;html=1;movable=1;resizable=1;rotatable=1;deletable=1;editable=1;locked=0;connectable=1;" parent="1" vertex="1">
          <mxGeometry x="807.5" y="100" width="50" height="1010" as="geometry" />
        </mxCell>
        <mxCell id="t61wf-N3fbhxSQ1rRu1j-16" value="" style="rounded=0;whiteSpace=wrap;html=1;" parent="1" vertex="1">
          <mxGeometry x="817.5" y="110" width="30" height="30" as="geometry" />
        </mxCell>
        <mxCell id="t61wf-N3fbhxSQ1rRu1j-17" value="menu" style="text;html=1;align=center;verticalAlign=middle;whiteSpace=wrap;rounded=0;" parent="1" vertex="1">
          <mxGeometry x="802.5" y="100" width="60" height="30" as="geometry" />
        </mxCell>
        <mxCell id="t61wf-N3fbhxSQ1rRu1j-18" value="" style="rounded=0;whiteSpace=wrap;html=1;movable=0;resizable=0;rotatable=0;deletable=0;editable=0;locked=1;connectable=0;" parent="1" vertex="1">
          <mxGeometry x="877.5" y="360" width="670" height="50" as="geometry" />
        </mxCell>
        <mxCell id="t61wf-N3fbhxSQ1rRu1j-19" value="short intro text about the sites purpose" style="text;html=1;align=center;verticalAlign=middle;whiteSpace=wrap;rounded=0;" parent="1" vertex="1">
          <mxGeometry x="1087.5" y="360" width="250" height="50" as="geometry" />
        </mxCell>
        <mxCell id="t61wf-N3fbhxSQ1rRu1j-20" value="" style="rounded=0;whiteSpace=wrap;html=1;movable=1;resizable=1;rotatable=1;deletable=1;editable=1;locked=0;connectable=1;" parent="1" vertex="1">
          <mxGeometry x="877.5" y="550" width="670" height="560" as="geometry" />
        </mxCell>
        <mxCell id="t61wf-N3fbhxSQ1rRu1j-53" value="" style="rounded=0;whiteSpace=wrap;html=1;movable=0;resizable=0;rotatable=0;deletable=0;editable=0;locked=1;connectable=0;" parent="1" vertex="1">
          <mxGeometry x="887.5" y="590" width="652.5" height="150" as="geometry" />
        </mxCell>
        <mxCell id="t61wf-N3fbhxSQ1rRu1j-47" value="" style="rounded=0;whiteSpace=wrap;html=1;movable=0;resizable=0;rotatable=0;deletable=0;editable=0;locked=1;connectable=0;" parent="1" vertex="1">
          <mxGeometry x="887.5" y="430" width="652.5" height="150" as="geometry" />
        </mxCell>
        <mxCell id="t61wf-N3fbhxSQ1rRu1j-21" value="" style="ellipse;whiteSpace=wrap;html=1;aspect=fixed;" parent="1" vertex="1">
          <mxGeometry x="895" y="460" width="80" height="80" as="geometry" />
        </mxCell>
        <mxCell id="t61wf-N3fbhxSQ1rRu1j-22" value="" style="ellipse;whiteSpace=wrap;html=1;aspect=fixed;" parent="1" vertex="1">
          <mxGeometry x="997.5" y="460" width="80" height="80" as="geometry" />
        </mxCell>
        <mxCell id="t61wf-N3fbhxSQ1rRu1j-37" value="Title" style="text;html=1;align=center;verticalAlign=middle;whiteSpace=wrap;rounded=0;" parent="1" vertex="1">
          <mxGeometry x="905" y="540" width="60" height="30" as="geometry" />
        </mxCell>
        <mxCell id="t61wf-N3fbhxSQ1rRu1j-44" value="Title" style="text;html=1;align=center;verticalAlign=middle;whiteSpace=wrap;rounded=0;" parent="1" vertex="1">
          <mxGeometry x="1007.5" y="540" width="60" height="30" as="geometry" />
        </mxCell>
        <mxCell id="t61wf-N3fbhxSQ1rRu1j-49" value="&lt;font style=&quot;font-size: 18px;&quot;&gt;Information&lt;/font&gt;" style="text;html=1;align=center;verticalAlign=middle;whiteSpace=wrap;rounded=0;" parent="1" vertex="1">
          <mxGeometry x="900" y="430" width="70" height="30" as="geometry" />
        </mxCell>
        <mxCell id="t61wf-N3fbhxSQ1rRu1j-54" value="&lt;font style=&quot;font-size: 18px;&quot;&gt;beginner&lt;/font&gt;" style="text;html=1;align=center;verticalAlign=middle;whiteSpace=wrap;rounded=0;" parent="1" vertex="1">
          <mxGeometry x="895" y="590" width="60" height="30" as="geometry" />
        </mxCell>
        <mxCell id="t61wf-N3fbhxSQ1rRu1j-55" value="" style="rounded=0;whiteSpace=wrap;html=1;movable=0;resizable=0;rotatable=0;deletable=0;editable=0;locked=1;connectable=0;" parent="1" vertex="1">
          <mxGeometry x="887.5" y="750" width="652.5" height="150" as="geometry" />
        </mxCell>
        <mxCell id="EqHNukowYsHH8Fm9DPua-3" value="" style="rounded=0;whiteSpace=wrap;html=1;movable=1;resizable=1;rotatable=1;deletable=1;editable=1;locked=0;connectable=1;" parent="1" vertex="1">
          <mxGeometry x="887.5" y="910" width="652.5" height="150" as="geometry" />
        </mxCell>
        <mxCell id="EqHNukowYsHH8Fm9DPua-4" value="&lt;span style=&quot;font-size: 18px;&quot;&gt;Game Asset creation&lt;/span&gt;" style="text;html=1;align=center;verticalAlign=middle;whiteSpace=wrap;rounded=0;" parent="1" vertex="1">
          <mxGeometry x="905" y="920" width="175" height="30" as="geometry" />
        </mxCell>
        <mxCell id="t61wf-N3fbhxSQ1rRu1j-50" value="" style="ellipse;whiteSpace=wrap;html=1;aspect=fixed;" parent="1" vertex="1">
          <mxGeometry x="895" y="950" width="80" height="80" as="geometry" />
        </mxCell>
        <mxCell id="t61wf-N3fbhxSQ1rRu1j-51" value="image&lt;span style=&quot;color: rgba(0, 0, 0, 0); font-family: monospace; font-size: 0px; text-align: start; text-wrap: nowrap;&quot;&gt;%3CmxGraphModel%3E%3Croot%3E%3CmxCell%20id%3D%220%22%2F%3E%3CmxCell%20id%3D%221%22%20parent%3D%220%22%2F%3E%3CmxCell%20id%3D%222%22%20value%3D%22%22%20style%3D%22ellipse%3BwhiteSpace%3Dwrap%3Bhtml%3D1%3Baspect%3Dfixed%3B%22%20vertex%3D%221%22%20parent%3D%221%22%3E%3CmxGeometry%20x%3D%22120%22%20y%3D%22530%22%20width%3D%2280%22%20height%3D%2280%22%20as%3D%22geometry%22%2F%3E%3C%2FmxCell%3E%3C%2Froot%3E%3C%2FmxGraphModel%3E&lt;/span&gt;" style="text;html=1;align=center;verticalAlign=middle;whiteSpace=wrap;rounded=0;" parent="1" vertex="1">
          <mxGeometry x="905" y="975" width="60" height="30" as="geometry" />
        </mxCell>
        <mxCell id="t61wf-N3fbhxSQ1rRu1j-52" value="Title" style="text;html=1;align=center;verticalAlign=middle;whiteSpace=wrap;rounded=0;" parent="1" vertex="1">
          <mxGeometry x="905" y="1030" width="60" height="30" as="geometry" />
        </mxCell>
        <mxCell id="EqHNukowYsHH8Fm9DPua-5" value="" style="ellipse;whiteSpace=wrap;html=1;aspect=fixed;" parent="1" vertex="1">
          <mxGeometry x="997.5" y="950" width="80" height="80" as="geometry" />
        </mxCell>
        <mxCell id="EqHNukowYsHH8Fm9DPua-6" value="image&lt;span style=&quot;color: rgba(0, 0, 0, 0); font-family: monospace; font-size: 0px; text-align: start; text-wrap: nowrap;&quot;&gt;%3CmxGraphModel%3E%3Croot%3E%3CmxCell%20id%3D%220%22%2F%3E%3CmxCell%20id%3D%221%22%20parent%3D%220%22%2F%3E%3CmxCell%20id%3D%222%22%20value%3D%22%22%20style%3D%22ellipse%3BwhiteSpace%3Dwrap%3Bhtml%3D1%3Baspect%3Dfixed%3B%22%20vertex%3D%221%22%20parent%3D%221%22%3E%3CmxGeometry%20x%3D%22120%22%20y%3D%22530%22%20width%3D%2280%22%20height%3D%2280%22%20as%3D%22geometry%22%2F%3E%3C%2FmxCell%3E%3C%2Froot%3E%3C%2FmxGraphModel%3E&lt;/span&gt;" style="text;html=1;align=center;verticalAlign=middle;whiteSpace=wrap;rounded=0;" parent="1" vertex="1">
          <mxGeometry x="1007.5" y="975" width="60" height="30" as="geometry" />
        </mxCell>
        <mxCell id="EqHNukowYsHH8Fm9DPua-7" value="Title" style="text;html=1;align=center;verticalAlign=middle;whiteSpace=wrap;rounded=0;" parent="1" vertex="1">
          <mxGeometry x="1007.5" y="1030" width="60" height="30" as="geometry" />
        </mxCell>
        <mxCell id="EqHNukowYsHH8Fm9DPua-8" value="" style="ellipse;whiteSpace=wrap;html=1;aspect=fixed;" parent="1" vertex="1">
          <mxGeometry x="1107.5" y="950" width="80" height="80" as="geometry" />
        </mxCell>
        <mxCell id="EqHNukowYsHH8Fm9DPua-9" value="image&lt;span style=&quot;color: rgba(0, 0, 0, 0); font-family: monospace; font-size: 0px; text-align: start; text-wrap: nowrap;&quot;&gt;%3CmxGraphModel%3E%3Croot%3E%3CmxCell%20id%3D%220%22%2F%3E%3CmxCell%20id%3D%221%22%20parent%3D%220%22%2F%3E%3CmxCell%20id%3D%222%22%20value%3D%22%22%20style%3D%22ellipse%3BwhiteSpace%3Dwrap%3Bhtml%3D1%3Baspect%3Dfixed%3B%22%20vertex%3D%221%22%20parent%3D%221%22%3E%3CmxGeometry%20x%3D%22120%22%20y%3D%22530%22%20width%3D%2280%22%20height%3D%2280%22%20as%3D%22geometry%22%2F%3E%3C%2FmxCell%3E%3C%2Froot%3E%3C%2FmxGraphModel%3E&lt;/span&gt;" style="text;html=1;align=center;verticalAlign=middle;whiteSpace=wrap;rounded=0;" parent="1" vertex="1">
          <mxGeometry x="1117.5" y="975" width="60" height="30" as="geometry" />
        </mxCell>
        <mxCell id="EqHNukowYsHH8Fm9DPua-10" value="Title" style="text;html=1;align=center;verticalAlign=middle;whiteSpace=wrap;rounded=0;" parent="1" vertex="1">
          <mxGeometry x="1117.5" y="1030" width="60" height="30" as="geometry" />
        </mxCell>
        <mxCell id="EqHNukowYsHH8Fm9DPua-11" value="" style="ellipse;whiteSpace=wrap;html=1;aspect=fixed;" parent="1" vertex="1">
          <mxGeometry x="1215" y="950" width="80" height="80" as="geometry" />
        </mxCell>
        <mxCell id="EqHNukowYsHH8Fm9DPua-12" value="image&lt;span style=&quot;color: rgba(0, 0, 0, 0); font-family: monospace; font-size: 0px; text-align: start; text-wrap: nowrap;&quot;&gt;%3CmxGraphModel%3E%3Croot%3E%3CmxCell%20id%3D%220%22%2F%3E%3CmxCell%20id%3D%221%22%20parent%3D%220%22%2F%3E%3CmxCell%20id%3D%222%22%20value%3D%22%22%20style%3D%22ellipse%3BwhiteSpace%3Dwrap%3Bhtml%3D1%3Baspect%3Dfixed%3B%22%20vertex%3D%221%22%20parent%3D%221%22%3E%3CmxGeometry%20x%3D%22120%22%20y%3D%22530%22%20width%3D%2280%22%20height%3D%2280%22%20as%3D%22geometry%22%2F%3E%3C%2FmxCell%3E%3C%2Froot%3E%3C%2FmxGraphModel%3E&lt;/span&gt;" style="text;html=1;align=center;verticalAlign=middle;whiteSpace=wrap;rounded=0;" parent="1" vertex="1">
          <mxGeometry x="1225" y="975" width="60" height="30" as="geometry" />
        </mxCell>
        <mxCell id="EqHNukowYsHH8Fm9DPua-13" value="Title" style="text;html=1;align=center;verticalAlign=middle;whiteSpace=wrap;rounded=0;" parent="1" vertex="1">
          <mxGeometry x="1225" y="1030" width="60" height="30" as="geometry" />
        </mxCell>
        <mxCell id="EqHNukowYsHH8Fm9DPua-14" value="" style="ellipse;whiteSpace=wrap;html=1;aspect=fixed;" parent="1" vertex="1">
          <mxGeometry x="1760" y="910" width="80" height="80" as="geometry" />
        </mxCell>
        <mxCell id="EqHNukowYsHH8Fm9DPua-15" value="image&lt;span style=&quot;color: rgba(0, 0, 0, 0); font-family: monospace; font-size: 0px; text-align: start; text-wrap: nowrap;&quot;&gt;%3CmxGraphModel%3E%3Croot%3E%3CmxCell%20id%3D%220%22%2F%3E%3CmxCell%20id%3D%221%22%20parent%3D%220%22%2F%3E%3CmxCell%20id%3D%222%22%20value%3D%22%22%20style%3D%22ellipse%3BwhiteSpace%3Dwrap%3Bhtml%3D1%3Baspect%3Dfixed%3B%22%20vertex%3D%221%22%20parent%3D%221%22%3E%3CmxGeometry%20x%3D%22120%22%20y%3D%22530%22%20width%3D%2280%22%20height%3D%2280%22%20as%3D%22geometry%22%2F%3E%3C%2FmxCell%3E%3C%2Froot%3E%3C%2FmxGraphModel%3E&lt;/span&gt;" style="text;html=1;align=center;verticalAlign=middle;whiteSpace=wrap;rounded=0;" parent="1" vertex="1">
          <mxGeometry x="1770" y="935" width="60" height="30" as="geometry" />
        </mxCell>
        <mxCell id="EqHNukowYsHH8Fm9DPua-16" value="Title" style="text;html=1;align=center;verticalAlign=middle;whiteSpace=wrap;rounded=0;" parent="1" vertex="1">
          <mxGeometry x="1770" y="990" width="60" height="30" as="geometry" />
        </mxCell>
        <mxCell id="r833wd5Um6LA9S_pcdjU-1" value="" style="rounded=0;whiteSpace=wrap;html=1;" parent="1" vertex="1">
          <mxGeometry x="10" y="990" width="730" height="80" as="geometry" />
        </mxCell>
        <mxCell id="r833wd5Um6LA9S_pcdjU-2" value="&lt;span style=&quot;font-size: 24px;&quot;&gt;FOOTER&lt;/span&gt;" style="text;html=1;align=center;verticalAlign=middle;whiteSpace=wrap;rounded=0;" parent="1" vertex="1">
          <mxGeometry x="40" y="1015" width="60" height="30" as="geometry" />
        </mxCell>
        <mxCell id="r833wd5Um6LA9S_pcdjU-3" value="" style="rounded=0;whiteSpace=wrap;html=1;" parent="1" vertex="1">
          <mxGeometry x="90" y="540" width="180" height="170" as="geometry" />
        </mxCell>
        <mxCell id="r833wd5Um6LA9S_pcdjU-4" value="" style="rounded=0;whiteSpace=wrap;html=1;" parent="1" vertex="1">
          <mxGeometry x="315" y="540" width="180" height="170" as="geometry" />
        </mxCell>
        <mxCell id="r833wd5Um6LA9S_pcdjU-5" value="" style="rounded=0;whiteSpace=wrap;html=1;" parent="1" vertex="1">
          <mxGeometry x="520" y="480" width="240" height="495" as="geometry" />
        </mxCell>
        <mxCell id="zqXfPUIMI5GI3xptxA7X-1" value="&lt;span style=&quot;font-size: 18px;&quot;&gt;Projects&lt;/span&gt;" style="text;html=1;align=center;verticalAlign=middle;whiteSpace=wrap;rounded=0;" vertex="1" parent="1">
          <mxGeometry x="100" y="490" width="70" height="30" as="geometry" />
        </mxCell>
        <mxCell id="zqXfPUIMI5GI3xptxA7X-2" value="" style="rounded=0;whiteSpace=wrap;html=1;" vertex="1" parent="1">
          <mxGeometry x="90" y="750" width="180" height="170" as="geometry" />
        </mxCell>
        <mxCell id="zqXfPUIMI5GI3xptxA7X-3" value="" style="rounded=0;whiteSpace=wrap;html=1;" vertex="1" parent="1">
          <mxGeometry x="315" y="750" width="180" height="170" as="geometry" />
        </mxCell>
        <mxCell id="zqXfPUIMI5GI3xptxA7X-4" value="&lt;span style=&quot;font-size: 18px;&quot;&gt;LLM Chat&lt;/span&gt;" style="text;html=1;align=center;verticalAlign=middle;whiteSpace=wrap;rounded=0;" vertex="1" parent="1">
          <mxGeometry x="540" y="490" width="100" height="30" as="geometry" />
        </mxCell>
      </root>
    </mxGraphModel>
  </diagram>
</mxfile>
